<mxfile host="Electron" agent="Mozilla/5.0 (Windows NT 10.0; Win64; x64) AppleWebKit/537.36 (KHTML, like Gecko) draw.io/24.7.17 Chrome/128.0.6613.36 Electron/32.0.1 Safari/537.36" version="24.7.17">
  <diagram name="Страница — 1" id="F0_V9GNVB1u2j4UBDake">
    <mxGraphModel dx="941" dy="644" grid="1" gridSize="10" guides="1" tooltips="1" connect="1" arrows="1" fold="1" page="1" pageScale="1" pageWidth="827" pageHeight="1169" math="0" shadow="0">
      <root>
        <mxCell id="0" />
        <mxCell id="1" parent="0" />
        <mxCell id="mJjeErOtGLP1EQTzvkRk-5" value="" style="endArrow=none;html=1;rounded=0;entryX=0.5;entryY=1;entryDx=0;entryDy=0;entryPerimeter=0;exitX=0.5;exitY=0;exitDx=0;exitDy=0;" edge="1" parent="1" source="mJjeErOtGLP1EQTzvkRk-4" target="jdBtUc2KWUnGKQaNXSCK-2">
          <mxGeometry width="50" height="50" relative="1" as="geometry">
            <mxPoint x="80" y="200" as="sourcePoint" />
            <mxPoint x="130" y="150" as="targetPoint" />
          </mxGeometry>
        </mxCell>
        <mxCell id="jdBtUc2KWUnGKQaNXSCK-2" value="Начало" style="strokeWidth=2;html=1;shape=mxgraph.flowchart.terminator;whiteSpace=wrap;" parent="1" vertex="1">
          <mxGeometry x="180" y="30" width="100" height="60" as="geometry" />
        </mxCell>
        <mxCell id="jdBtUc2KWUnGKQaNXSCK-3" value="Конец" style="strokeWidth=2;html=1;shape=mxgraph.flowchart.terminator;whiteSpace=wrap;" parent="1" vertex="1">
          <mxGeometry x="360" y="1010" width="100" height="60" as="geometry" />
        </mxCell>
        <mxCell id="jdBtUc2KWUnGKQaNXSCK-7" value="offsetL = 0" style="rounded=0;whiteSpace=wrap;html=1;" parent="1" vertex="1">
          <mxGeometry x="170" y="120" width="120" height="60" as="geometry" />
        </mxCell>
        <mxCell id="jdBtUc2KWUnGKQaNXSCK-8" value="offsetR = length / 2" style="rounded=0;whiteSpace=wrap;html=1;" parent="1" vertex="1">
          <mxGeometry x="170" y="190" width="120" height="60" as="geometry" />
        </mxCell>
        <mxCell id="mJjeErOtGLP1EQTzvkRk-17" style="edgeStyle=orthogonalEdgeStyle;rounded=0;orthogonalLoop=1;jettySize=auto;html=1;entryX=0.5;entryY=0;entryDx=0;entryDy=0;" edge="1" parent="1" source="jdBtUc2KWUnGKQaNXSCK-10" target="jdBtUc2KWUnGKQaNXSCK-12">
          <mxGeometry relative="1" as="geometry" />
        </mxCell>
        <mxCell id="mJjeErOtGLP1EQTzvkRk-19" value="" style="edgeStyle=orthogonalEdgeStyle;rounded=0;orthogonalLoop=1;jettySize=auto;html=1;endArrow=none;endFill=0;" edge="1" parent="1" source="jdBtUc2KWUnGKQaNXSCK-10" target="jdBtUc2KWUnGKQaNXSCK-15">
          <mxGeometry relative="1" as="geometry" />
        </mxCell>
        <mxCell id="jdBtUc2KWUnGKQaNXSCK-10" value="ints[offsetR + offset L] == value" style="strokeWidth=2;html=1;shape=mxgraph.flowchart.decision;whiteSpace=wrap;" parent="1" vertex="1">
          <mxGeometry x="360" y="230" width="100" height="100" as="geometry" />
        </mxCell>
        <mxCell id="mJjeErOtGLP1EQTzvkRk-27" style="edgeStyle=orthogonalEdgeStyle;rounded=0;orthogonalLoop=1;jettySize=auto;html=1;exitX=1;exitY=0.5;exitDx=0;exitDy=0;" edge="1" parent="1" source="jdBtUc2KWUnGKQaNXSCK-12">
          <mxGeometry relative="1" as="geometry">
            <mxPoint x="410" y="990" as="targetPoint" />
            <Array as="points">
              <mxPoint x="690" y="333" />
              <mxPoint x="690" y="990" />
            </Array>
          </mxGeometry>
        </mxCell>
        <mxCell id="jdBtUc2KWUnGKQaNXSCK-12" value="&amp;nbsp;Возврат offsetR + offsetL" style="shape=parallelogram;html=1;strokeWidth=2;perimeter=parallelogramPerimeter;whiteSpace=wrap;rounded=1;arcSize=0;size=0.23;" parent="1" vertex="1">
          <mxGeometry x="494" y="303" width="100" height="60" as="geometry" />
        </mxCell>
        <mxCell id="mJjeErOtGLP1EQTzvkRk-15" value="" style="edgeStyle=orthogonalEdgeStyle;rounded=0;orthogonalLoop=1;jettySize=auto;html=1;endArrow=none;endFill=0;" edge="1" parent="1" source="jdBtUc2KWUnGKQaNXSCK-13" target="jdBtUc2KWUnGKQaNXSCK-3">
          <mxGeometry relative="1" as="geometry" />
        </mxCell>
        <mxCell id="jdBtUc2KWUnGKQaNXSCK-13" value="&amp;nbsp;Возврат -1" style="shape=parallelogram;html=1;strokeWidth=2;perimeter=parallelogramPerimeter;whiteSpace=wrap;rounded=1;arcSize=0;size=0.23;" parent="1" vertex="1">
          <mxGeometry x="360" y="913" width="100" height="60" as="geometry" />
        </mxCell>
        <mxCell id="mJjeErOtGLP1EQTzvkRk-8" value="" style="edgeStyle=orthogonalEdgeStyle;rounded=0;orthogonalLoop=1;jettySize=auto;html=1;endArrow=none;endFill=0;" edge="1" parent="1" source="jdBtUc2KWUnGKQaNXSCK-14" target="jdBtUc2KWUnGKQaNXSCK-10">
          <mxGeometry relative="1" as="geometry" />
        </mxCell>
        <mxCell id="mJjeErOtGLP1EQTzvkRk-10" style="edgeStyle=orthogonalEdgeStyle;rounded=0;orthogonalLoop=1;jettySize=auto;html=1;entryX=0.5;entryY=0;entryDx=0;entryDy=0;endArrow=none;endFill=0;" edge="1" parent="1" source="jdBtUc2KWUnGKQaNXSCK-14" target="jdBtUc2KWUnGKQaNXSCK-13">
          <mxGeometry relative="1" as="geometry">
            <Array as="points">
              <mxPoint x="320" y="150" />
              <mxPoint x="320" y="890" />
              <mxPoint x="410" y="890" />
            </Array>
          </mxGeometry>
        </mxCell>
        <mxCell id="jdBtUc2KWUnGKQaNXSCK-14" value="offsetR != 0" style="strokeWidth=2;html=1;shape=mxgraph.flowchart.decision;whiteSpace=wrap;" parent="1" vertex="1">
          <mxGeometry x="360" y="100" width="100" height="100" as="geometry" />
        </mxCell>
        <mxCell id="mJjeErOtGLP1EQTzvkRk-20" style="edgeStyle=orthogonalEdgeStyle;rounded=0;orthogonalLoop=1;jettySize=auto;html=1;entryX=0.5;entryY=0;entryDx=0;entryDy=0;endArrow=none;endFill=0;" edge="1" parent="1" source="jdBtUc2KWUnGKQaNXSCK-15" target="jdBtUc2KWUnGKQaNXSCK-17">
          <mxGeometry relative="1" as="geometry" />
        </mxCell>
        <mxCell id="mJjeErOtGLP1EQTzvkRk-22" value="" style="edgeStyle=orthogonalEdgeStyle;rounded=0;orthogonalLoop=1;jettySize=auto;html=1;endArrow=none;endFill=0;" edge="1" parent="1" source="jdBtUc2KWUnGKQaNXSCK-15" target="jdBtUc2KWUnGKQaNXSCK-16">
          <mxGeometry relative="1" as="geometry" />
        </mxCell>
        <mxCell id="jdBtUc2KWUnGKQaNXSCK-15" value="ints[offsetR + offset L] &amp;gt; value" style="strokeWidth=2;html=1;shape=mxgraph.flowchart.decision;whiteSpace=wrap;" parent="1" vertex="1">
          <mxGeometry x="360" y="373" width="100" height="100" as="geometry" />
        </mxCell>
        <mxCell id="mJjeErOtGLP1EQTzvkRk-23" style="edgeStyle=orthogonalEdgeStyle;rounded=0;orthogonalLoop=1;jettySize=auto;html=1;entryX=0.5;entryY=0;entryDx=0;entryDy=0;endArrow=none;endFill=0;" edge="1" parent="1" source="jdBtUc2KWUnGKQaNXSCK-16" target="jdBtUc2KWUnGKQaNXSCK-19">
          <mxGeometry relative="1" as="geometry" />
        </mxCell>
        <mxCell id="jdBtUc2KWUnGKQaNXSCK-16" value="ints[offsetR + offset L] == value" style="strokeWidth=2;html=1;shape=mxgraph.flowchart.decision;whiteSpace=wrap;" parent="1" vertex="1">
          <mxGeometry x="360" y="543" width="100" height="100" as="geometry" />
        </mxCell>
        <mxCell id="mJjeErOtGLP1EQTzvkRk-21" style="edgeStyle=orthogonalEdgeStyle;rounded=0;orthogonalLoop=1;jettySize=auto;html=1;" edge="1" parent="1" source="jdBtUc2KWUnGKQaNXSCK-17">
          <mxGeometry relative="1" as="geometry">
            <mxPoint x="410" y="503" as="targetPoint" />
          </mxGeometry>
        </mxCell>
        <mxCell id="jdBtUc2KWUnGKQaNXSCK-17" value="offsetR /= 2" style="rounded=0;whiteSpace=wrap;html=1;" parent="1" vertex="1">
          <mxGeometry x="484" y="473" width="120" height="60" as="geometry" />
        </mxCell>
        <mxCell id="mJjeErOtGLP1EQTzvkRk-26" style="edgeStyle=orthogonalEdgeStyle;rounded=0;orthogonalLoop=1;jettySize=auto;html=1;" edge="1" parent="1" source="jdBtUc2KWUnGKQaNXSCK-18">
          <mxGeometry relative="1" as="geometry">
            <mxPoint x="410" y="730" as="targetPoint" />
          </mxGeometry>
        </mxCell>
        <mxCell id="jdBtUc2KWUnGKQaNXSCK-18" value="offsetR /= 2" style="rounded=0;whiteSpace=wrap;html=1;" parent="1" vertex="1">
          <mxGeometry x="484" y="700" width="120" height="60" as="geometry" />
        </mxCell>
        <mxCell id="mJjeErOtGLP1EQTzvkRk-25" style="edgeStyle=orthogonalEdgeStyle;rounded=0;orthogonalLoop=1;jettySize=auto;html=1;endArrow=none;endFill=0;" edge="1" parent="1" source="jdBtUc2KWUnGKQaNXSCK-19">
          <mxGeometry relative="1" as="geometry">
            <mxPoint x="544" y="690" as="targetPoint" />
          </mxGeometry>
        </mxCell>
        <mxCell id="jdBtUc2KWUnGKQaNXSCK-19" value="offsetL += offsetR" style="rounded=0;whiteSpace=wrap;html=1;" parent="1" vertex="1">
          <mxGeometry x="484" y="620" width="120" height="60" as="geometry" />
        </mxCell>
        <mxCell id="mJjeErOtGLP1EQTzvkRk-14" value="" style="edgeStyle=orthogonalEdgeStyle;rounded=0;orthogonalLoop=1;jettySize=auto;html=1;endArrow=none;endFill=0;" edge="1" parent="1" source="jdBtUc2KWUnGKQaNXSCK-20" target="jdBtUc2KWUnGKQaNXSCK-13">
          <mxGeometry relative="1" as="geometry" />
        </mxCell>
        <mxCell id="mJjeErOtGLP1EQTzvkRk-16" style="edgeStyle=orthogonalEdgeStyle;rounded=0;orthogonalLoop=1;jettySize=auto;html=1;entryX=0;entryY=0.5;entryDx=0;entryDy=0;" edge="1" parent="1" source="jdBtUc2KWUnGKQaNXSCK-20" target="mJjeErOtGLP1EQTzvkRk-9">
          <mxGeometry relative="1" as="geometry">
            <Array as="points">
              <mxPoint x="620" y="833" />
              <mxPoint x="620" y="215" />
            </Array>
          </mxGeometry>
        </mxCell>
        <mxCell id="jdBtUc2KWUnGKQaNXSCK-20" value="offsetR != 0" style="strokeWidth=2;html=1;shape=mxgraph.flowchart.decision;whiteSpace=wrap;" parent="1" vertex="1">
          <mxGeometry x="360" y="783" width="100" height="100" as="geometry" />
        </mxCell>
        <mxCell id="mJjeErOtGLP1EQTzvkRk-7" value="" style="edgeStyle=orthogonalEdgeStyle;rounded=0;orthogonalLoop=1;jettySize=auto;html=1;endArrow=none;endFill=0;" edge="1" parent="1" source="mJjeErOtGLP1EQTzvkRk-3" target="jdBtUc2KWUnGKQaNXSCK-14">
          <mxGeometry relative="1" as="geometry" />
        </mxCell>
        <mxCell id="mJjeErOtGLP1EQTzvkRk-3" value="А&lt;span style=&quot;color: rgba(0, 0, 0, 0); font-family: monospace; font-size: 0px; text-align: start; text-wrap: nowrap; background-color: rgb(27, 29, 30);&quot;&gt;%3CmxGraphModel%3E%3Croot%3E%3CmxCell%20id%3D%220%22%2F%3E%3CmxCell%20id%3D%221%22%20parent%3D%220%22%2F%3E%3CmxCell%20id%3D%222%22%20value%3D%22%D0%94%D0%B0%22%20style%3D%22text%3Bhtml%3D1%3Balign%3Dcenter%3BverticalAlign%3Dmiddle%3BwhiteSpace%3Dwrap%3Brounded%3D0%3B%22%20vertex%3D%221%22%20parent%3D%221%22%3E%3CmxGeometry%20x%3D%22340%22%20y%3D%22334%22%20width%3D%2260%22%20height%3D%2230%22%20as%3D%22geometry%22%2F%3E%3C%2FmxCell%3E%3C%2Froot%3E%3C%2FmxGraphModel%3E&lt;/span&gt;" style="ellipse;whiteSpace=wrap;html=1;aspect=fixed;" vertex="1" parent="1">
          <mxGeometry x="370" width="80" height="80" as="geometry" />
        </mxCell>
        <mxCell id="mJjeErOtGLP1EQTzvkRk-4" value="А&lt;span style=&quot;color: rgba(0, 0, 0, 0); font-family: monospace; font-size: 0px; text-align: start; text-wrap: nowrap; background-color: rgb(27, 29, 30);&quot;&gt;%3CmxGraphModel%3E%3Croot%3E%3CmxCell%20id%3D%220%22%2F%3E%3CmxCell%20id%3D%221%22%20parent%3D%220%22%2F%3E%3CmxCell%20id%3D%222%22%20value%3D%22%D0%94%D0%B0%22%20style%3D%22text%3Bhtml%3D1%3Balign%3Dcenter%3BverticalAlign%3Dmiddle%3BwhiteSpace%3Dwrap%3Brounded%3D0%3B%22%20vertex%3D%221%22%20parent%3D%221%22%3E%3CmxGeometry%20x%3D%22340%22%20y%3D%22334%22%20width%3D%2260%22%20height%3D%2230%22%20as%3D%22geometry%22%2F%3E%3C%2FmxCell%3E%3C%2Froot%3E%3C%2FmxGraphModel%3E&lt;/span&gt;" style="ellipse;whiteSpace=wrap;html=1;aspect=fixed;" vertex="1" parent="1">
          <mxGeometry x="190" y="280" width="80" height="80" as="geometry" />
        </mxCell>
        <mxCell id="mJjeErOtGLP1EQTzvkRk-9" value="Да" style="text;html=1;align=center;verticalAlign=middle;whiteSpace=wrap;rounded=0;" vertex="1" parent="1">
          <mxGeometry x="410" y="200" width="60" height="30" as="geometry" />
        </mxCell>
        <mxCell id="mJjeErOtGLP1EQTzvkRk-12" value="Да" style="text;html=1;align=center;verticalAlign=middle;whiteSpace=wrap;rounded=0;" vertex="1" parent="1">
          <mxGeometry x="460" y="800" width="60" height="30" as="geometry" />
        </mxCell>
        <mxCell id="mJjeErOtGLP1EQTzvkRk-13" value="Нет" style="text;html=1;align=center;verticalAlign=middle;whiteSpace=wrap;rounded=0;" vertex="1" parent="1">
          <mxGeometry x="424" y="860" width="60" height="30" as="geometry" />
        </mxCell>
        <mxCell id="mJjeErOtGLP1EQTzvkRk-24" style="edgeStyle=orthogonalEdgeStyle;rounded=0;orthogonalLoop=1;jettySize=auto;html=1;entryX=0.5;entryY=0;entryDx=0;entryDy=0;entryPerimeter=0;endArrow=none;endFill=0;" edge="1" parent="1" source="jdBtUc2KWUnGKQaNXSCK-16" target="jdBtUc2KWUnGKQaNXSCK-20">
          <mxGeometry relative="1" as="geometry" />
        </mxCell>
        <mxCell id="mJjeErOtGLP1EQTzvkRk-28" value="Да" style="text;html=1;align=center;verticalAlign=middle;whiteSpace=wrap;rounded=0;" vertex="1" parent="1">
          <mxGeometry x="460" y="555" width="60" height="30" as="geometry" />
        </mxCell>
        <mxCell id="mJjeErOtGLP1EQTzvkRk-29" value="Да" style="text;html=1;align=center;verticalAlign=middle;whiteSpace=wrap;rounded=0;" vertex="1" parent="1">
          <mxGeometry x="460" y="390" width="60" height="30" as="geometry" />
        </mxCell>
        <mxCell id="mJjeErOtGLP1EQTzvkRk-30" value="Да" style="text;html=1;align=center;verticalAlign=middle;whiteSpace=wrap;rounded=0;" vertex="1" parent="1">
          <mxGeometry x="460" y="240" width="60" height="30" as="geometry" />
        </mxCell>
        <mxCell id="mJjeErOtGLP1EQTzvkRk-32" value="Нет" style="text;html=1;align=center;verticalAlign=middle;whiteSpace=wrap;rounded=0;" vertex="1" parent="1">
          <mxGeometry x="320" y="120" width="60" height="30" as="geometry" />
        </mxCell>
        <mxCell id="mJjeErOtGLP1EQTzvkRk-33" value="Нет" style="text;html=1;align=center;verticalAlign=middle;whiteSpace=wrap;rounded=0;" vertex="1" parent="1">
          <mxGeometry x="353.5" y="318" width="60" height="30" as="geometry" />
        </mxCell>
        <mxCell id="mJjeErOtGLP1EQTzvkRk-34" value="Нет" style="text;html=1;align=center;verticalAlign=middle;whiteSpace=wrap;rounded=0;" vertex="1" parent="1">
          <mxGeometry x="354" y="470" width="60" height="30" as="geometry" />
        </mxCell>
        <mxCell id="mJjeErOtGLP1EQTzvkRk-35" value="Нет" style="text;html=1;align=center;verticalAlign=middle;whiteSpace=wrap;rounded=0;" vertex="1" parent="1">
          <mxGeometry x="360" y="643" width="60" height="30" as="geometry" />
        </mxCell>
      </root>
    </mxGraphModel>
  </diagram>
</mxfile>
